<svg width="24" height="19" viewBox="0 0 24 19" fill="none" xmlns="http://www.w3.org/2000/svg">
<path d="M20.3175 2.19632C18.7875 1.50632 17.1475 0.996319 15.4325 0.706319C15.4172 0.703387 15.4014 0.705277 15.3872 0.711727C15.3731 0.718177 15.3613 0.728868 15.3535 0.742319C15.1435 1.11132 14.9095 1.59232 14.7455 1.97232C12.9266 1.70056 11.0774 1.70056 9.25848 1.97232C9.07582 1.55118 8.86983 1.14054 8.64148 0.742319C8.63374 0.728702 8.62203 0.717769 8.60792 0.710979C8.5938 0.70419 8.57795 0.701866 8.56248 0.704319C6.84848 0.994319 5.20848 1.50432 3.67748 2.19532C3.66431 2.20084 3.65314 2.21027 3.64548 2.22232C0.533481 6.79732 -0.319519 11.2593 0.0994806 15.6653C0.100647 15.6761 0.103996 15.6866 0.109326 15.696C0.114655 15.7055 0.121853 15.7137 0.130481 15.7203C1.94687 17.0427 3.97282 18.0501 6.12348 18.7003C6.13847 18.7049 6.15451 18.7049 6.16949 18.7003C6.18448 18.6956 6.19772 18.6866 6.20748 18.6743C6.67028 18.0554 7.08038 17.3988 7.43348 16.7113C7.43838 16.7019 7.44121 16.6916 7.44176 16.681C7.44232 16.6704 7.4406 16.6598 7.43671 16.65C7.43282 16.6401 7.42686 16.6312 7.41923 16.6238C7.4116 16.6165 7.40248 16.6108 7.39248 16.6073C6.74649 16.364 6.12057 16.0705 5.52048 15.7293C5.5097 15.7232 5.50061 15.7144 5.49404 15.7039C5.48746 15.6934 5.48361 15.6814 5.48281 15.669C5.48202 15.6566 5.48432 15.6442 5.48949 15.6329C5.49467 15.6216 5.50257 15.6118 5.51248 15.6043C5.63848 15.5113 5.76448 15.4143 5.88448 15.3173C5.89528 15.3086 5.90829 15.303 5.92206 15.3013C5.93584 15.2995 5.94983 15.3016 5.96248 15.3073C9.88948 17.0713 14.1425 17.0713 18.0235 15.3073C18.0362 15.3013 18.0503 15.2989 18.0643 15.3005C18.0782 15.3021 18.0915 15.3076 18.1025 15.3163C18.2225 15.4143 18.3475 15.5113 18.4745 15.6043C18.4845 15.6116 18.4925 15.6213 18.4979 15.6325C18.5032 15.6437 18.5057 15.656 18.5051 15.6684C18.5045 15.6808 18.5008 15.6929 18.4945 15.7035C18.4881 15.7141 18.4791 15.723 18.4685 15.7293C17.8705 16.0733 17.2485 16.3643 16.5955 16.6063C16.5855 16.61 16.5763 16.6157 16.5687 16.6231C16.561 16.6306 16.5551 16.6396 16.5512 16.6495C16.5473 16.6595 16.5456 16.6701 16.5462 16.6808C16.5467 16.6914 16.5496 16.7018 16.5545 16.7113C16.9145 17.3983 17.3265 18.0523 17.7795 18.6733C17.7889 18.6861 17.802 18.6956 17.8171 18.7006C17.8321 18.7056 17.8483 18.7059 17.8635 18.7013C20.0178 18.053 22.0471 17.0451 23.8655 15.7203C23.8744 15.7141 23.8818 15.7061 23.8873 15.6968C23.8928 15.6875 23.8963 15.6771 23.8975 15.6663C24.3975 10.5723 23.0595 6.14632 20.3485 2.22432C20.3418 2.21157 20.3308 2.20164 20.3175 2.19632ZM8.02048 12.9823C6.83848 12.9823 5.86348 11.9133 5.86348 10.6023C5.86348 9.29032 6.81948 8.22232 8.02048 8.22232C9.23048 8.22232 10.1965 9.29932 10.1775 10.6023C10.1775 11.9143 9.22148 12.9823 8.02048 12.9823ZM15.9955 12.9823C14.8125 12.9823 13.8385 11.9133 13.8385 10.6023C13.8385 9.29032 14.7935 8.22232 15.9955 8.22232C17.2055 8.22232 18.1715 9.29932 18.1525 10.6023C18.1525 11.9143 17.2065 12.9823 15.9955 12.9823Z" fill="#4C566A" fill-opacity="0.5"/>
</svg>
