<svg width="24" height="24" viewBox="0 0 24 24" fill="none" xmlns="http://www.w3.org/2000/svg">
<path fill-rule="evenodd" clip-rule="evenodd" d="M12.001 0C5.37098 0 0.000976562 5.37 0.000976562 12C0.000976562 17.31 3.43598 21.795 8.20598 23.385C8.80598 23.49 9.03098 23.13 9.03098 22.815C9.03098 22.53 9.01598 21.585 9.01598 20.58C6.00098 21.135 5.22098 19.845 4.98098 19.17C4.84598 18.825 4.26098 17.76 3.75098 17.475C3.33098 17.25 2.73098 16.695 3.73598 16.68C4.68098 16.665 5.35598 17.55 5.58098 17.91C6.66098 19.725 8.38598 19.215 9.07598 18.9C9.18098 18.12 9.49598 17.595 9.84098 17.295C7.17098 16.995 4.38098 15.96 4.38098 11.37C4.38098 10.065 4.84598 8.985 5.61098 8.145C5.49098 7.845 5.07098 6.615 5.73098 4.965C5.73098 4.965 6.73598 4.65 9.03098 6.195C9.99098 5.925 11.011 5.79 12.031 5.79C13.051 5.79 14.071 5.925 15.031 6.195C17.326 4.635 18.331 4.965 18.331 4.965C18.991 6.615 18.571 7.845 18.451 8.145C19.216 8.985 19.681 10.05 19.681 11.37C19.681 15.975 16.876 16.995 14.206 17.295C14.641 17.67 15.016 18.39 15.016 19.515C15.016 21.12 15.001 22.41 15.001 22.815C15.001 23.13 15.226 23.505 15.826 23.385C18.2082 22.5807 20.2782 21.0497 21.7446 19.0074C23.2111 16.965 24.0003 14.5143 24.001 12C24.001 5.37 18.631 0 12.001 0Z" fill="#4C566A" fill-opacity="0.5"/>
</svg>
