<svg width="25" height="17" viewBox="0 0 25 17" fill="none" xmlns="http://www.w3.org/2000/svg">
<path d="M23.5011 3.21093C23.3652 2.72616 23.1005 2.28728 22.7351 1.94093C22.3594 1.58394 21.8989 1.32857 21.3971 1.19893C19.5191 0.703933 11.9951 0.703933 11.9951 0.703933C8.85844 0.668246 5.72253 0.825208 2.60511 1.17393C2.1033 1.31315 1.64367 1.57422 1.26711 1.93393C0.897105 2.28993 0.629105 2.72893 0.489105 3.20993C0.152798 5.02168 -0.0106025 6.86128 0.00110546 8.70393C-0.0108945 10.5449 0.152105 12.3839 0.489105 14.1979C0.626105 14.6769 0.893105 15.1139 1.26411 15.4669C1.63511 15.8199 2.09711 16.0749 2.60511 16.2099C4.50811 16.7039 11.9951 16.7039 11.9951 16.7039C15.1358 16.7397 18.2757 16.5827 21.3971 16.2339C21.8989 16.1043 22.3594 15.8489 22.7351 15.4919C23.1004 15.1457 23.3648 14.7067 23.5001 14.2219C23.8452 12.4109 24.013 10.5705 24.0011 8.72693C24.0271 6.87554 23.8595 5.0265 23.5011 3.20993V3.21093ZM9.60311 12.1279V5.28093L15.8631 8.70493L9.60311 12.1279Z" fill="#4C566A" fill-opacity="0.5"/>
</svg>
