<svg width="96" height="96" viewBox="0 0 96 96" fill="none" xmlns="http://www.w3.org/2000/svg">
<g filter="url(#filter0_i_8_479)">
<path d="M16 52H40C42.2 52 44 50.2 44 48V16C44 13.8 42.2 12 40 12H16C13.8 12 12 13.8 12 16V48C12 50.2 13.8 52 16 52ZM16 84H40C42.2 84 44 82.2 44 80V64C44 61.8 42.2 60 40 60H16C13.8 60 12 61.8 12 64V80C12 82.2 13.8 84 16 84ZM56 84H80C82.2 84 84 82.2 84 80V48C84 45.8 82.2 44 80 44H56C53.8 44 52 45.8 52 48V80C52 82.2 53.8 84 56 84ZM52 16V32C52 34.2 53.8 36 56 36H80C82.2 36 84 34.2 84 32V16C84 13.8 82.2 12 80 12H56C53.8 12 52 13.8 52 16Z" fill="#32BDDC"/>
</g>
<defs>
<filter id="filter0_i_8_479" x="0" y="0" width="96" height="100" filterUnits="userSpaceOnUse" color-interpolation-filters="sRGB">
<feFlood flood-opacity="0" result="BackgroundImageFix"/>
<feBlend mode="normal" in="SourceGraphic" in2="BackgroundImageFix" result="shape"/>
<feColorMatrix in="SourceAlpha" type="matrix" values="0 0 0 0 0 0 0 0 0 0 0 0 0 0 0 0 0 0 127 0" result="hardAlpha"/>
<feOffset dy="4"/>
<feGaussianBlur stdDeviation="2"/>
<feComposite in2="hardAlpha" operator="arithmetic" k2="-1" k3="1"/>
<feColorMatrix type="matrix" values="0 0 0 0 0 0 0 0 0 0 0 0 0 0 0 0 0 0 0.25 0"/>
<feBlend mode="normal" in2="shape" result="effect1_innerShadow_8_479"/>
</filter>
</defs>
</svg>
