<svg width="96" height="96" viewBox="0 0 96 96" fill="none" xmlns="http://www.w3.org/2000/svg">
<g filter="url(#filter0_i_8_571)">
<path d="M66.36 36H60V16C60 13.8 58.2 12 56 12H40C37.8 12 36 13.8 36 16V36H29.64C26.08 36 24.28 40.32 26.8 42.84L45.16 61.2C46.72 62.76 49.24 62.76 50.8 61.2L69.16 42.84C71.68 40.32 69.92 36 66.36 36ZM20 76C20 78.2 21.8 80 24 80H72C74.2 80 76 78.2 76 76C76 73.8 74.2 72 72 72H24C21.8 72 20 73.8 20 76Z" fill="#00CF21"/>
</g>
<defs>
<filter id="filter0_i_8_571" x="0" y="0" width="96" height="100" filterUnits="userSpaceOnUse" color-interpolation-filters="sRGB">
<feFlood flood-opacity="0" result="BackgroundImageFix"/>
<feBlend mode="normal" in="SourceGraphic" in2="BackgroundImageFix" result="shape"/>
<feColorMatrix in="SourceAlpha" type="matrix" values="0 0 0 0 0 0 0 0 0 0 0 0 0 0 0 0 0 0 127 0" result="hardAlpha"/>
<feOffset dy="4"/>
<feGaussianBlur stdDeviation="2"/>
<feComposite in2="hardAlpha" operator="arithmetic" k2="-1" k3="1"/>
<feColorMatrix type="matrix" values="0 0 0 0 0 0 0 0 0 0 0 0 0 0 0 0 0 0 0.25 0"/>
<feBlend mode="normal" in2="shape" result="effect1_innerShadow_8_571"/>
</filter>
</defs>
</svg>
